

Plot.

Journalist Mikael Blomkvist is aided in his search for a woman who has been missing for forty years by Lisbeth Salander, a young computer hacker.


General.

Complete name                    : The Girl With The Dragon Tattoo[2011]ENG[DVDRip]Xvid-{RedDragon} .avi
Format                           : .avi
Codec ID                         : mp42
File size                        : 801 MiB
Duration                         : 2h 38mn
Overall bit rate                 : 708 Kbps
Encoded date                     : UTC 2012-03-04 04:38:55
IMDB Link                           : http://www.imdb.com/title/tt1568346/
IMDB Rating                       : 8.1/10


Video.

ID                               : 1
Format                           : AVC
Format/Info                      : Advanced Video Codec
Format profile                   : Main@L3.0
Format settings, CABAC           : Yes
Format settings, ReFrames        : 4 frames
Format settings, GOP             : M=3, N=16
Codec ID                         : avc1
Codec ID/Info                    : Advanced Video Coding
Duration                         : 2h 38mn
Bit rate mode                    : Variable
Bit rate                         : 384 Kbps
Width                            : 720 pixels
Height                           : 302 pixels
Display aspect ratio             : 2.35:1
Frame rate mode                  : Variable
Frame rate                       : 23.976 fps
Minimum frame rate               : 23.974 fps
Maximum frame rate               : 23.981 fps
Color space                      : YUV
Chroma subsampling               : 4:2:0
Bit depth                        : 8 bits
Scan type                        : Progressive
Bits/(Pixel*Frame)               : 0.074
Stream size                      : 435 MiB (54%)
Writing library                  : x264 core 112


Audio.

ID                               : 2
Format                           : AC-3
Format/Info                      : Audio Coding 3
Mode extension                   : CM (complete main)
Codec ID                         : ac-3
Duration                         : 2h 38mn
Bit rate mode                    : Constant
Bit rate                         : 320 Kbps
Channel(s)                       : 2 channels
Channel positions                : Front: L R
Sampling rate                    : 48.0 KHz
Bit depth                        : 16 bits
Stream size                      : 362 MiB (45%)

